<svg width="28" height="23" viewBox="0 0 28 23" fill="none" xmlns="http://www.w3.org/2000/svg">
<path d="M3.12835 8.71428H7.45424L11.4721 17.6205L3.12835 8.71428ZM14.0033 19.0536L9.32924 8.71428H18.6775L14.0033 19.0536ZM7.49442 7H2.86049L6.71763 1.85714H10.2266L7.49442 7ZM16.5346 17.6205L20.5525 8.71428H24.8784L16.5346 17.6205ZM9.43638 7L12.1685 1.85714H15.8382L18.5703 7H9.43638ZM20.5123 7L17.7801 1.85714H21.2891L25.1462 7H20.5123ZM22.4007 0.491071C22.24 0.263392 21.9855 0.142856 21.7176 0.142856H6.28906C6.02121 0.142856 5.76674 0.263392 5.60603 0.491071L0.46317 7.34821C0.208705 7.66964 0.235491 8.13839 0.516741 8.44643L13.3739 22.1607C13.5346 22.3348 13.7623 22.4286 14.0033 22.4286C14.2444 22.4286 14.4721 22.3348 14.6328 22.1607L27.49 8.44643C27.7712 8.13839 27.798 7.66964 27.5435 7.34821L22.4007 0.491071Z" fill="#C1C5D4"/>
</svg>
