<svg width="24" height="23" viewBox="0 0 24 23" fill="none" xmlns="http://www.w3.org/2000/svg">
<path d="M23.1412 9.09375C23.1412 8.69196 22.7126 8.53125 22.3912 8.47768L15.668 7.5L12.6546 1.40625C12.534 1.15178 12.3064 0.857142 11.9983 0.857142C11.6903 0.857142 11.4626 1.15178 11.3421 1.40625L8.32868 7.5L1.60547 8.47768C1.27065 8.53125 0.855469 8.69196 0.855469 9.09375C0.855469 9.33482 1.02958 9.5625 1.19029 9.73661L6.06529 14.4777L4.9135 21.1741C4.90011 21.2679 4.88672 21.3482 4.88672 21.442C4.88672 21.7902 5.06083 22.1116 5.44922 22.1116C5.63672 22.1116 5.81083 22.0446 5.98493 21.9509L11.9983 18.7902L18.0117 21.9509C18.1724 22.0446 18.3599 22.1116 18.5474 22.1116C18.9358 22.1116 19.0965 21.7902 19.0965 21.442C19.0965 21.3482 19.0965 21.2679 19.0831 21.1741L17.9314 14.4777L22.793 9.73661C22.9671 9.5625 23.1412 9.33482 23.1412 9.09375Z" fill="#C1C5D4"/>
</svg>
