<svg width="36" height="34" viewBox="0 0 36 34" fill="none" xmlns="http://www.w3.org/2000/svg">
<path fill-rule="evenodd" clip-rule="evenodd" d="M17 1.00001C25.8365 1.00001 33 8.16347 33 17C33 25.8366 25.8365 33 17 33C8.1634 33 0.999974 25.8366 0.999974 17C0.999974 8.16347 8.1634 1.00001 17 1.00001Z" fill="white"/>
<path fill-rule="evenodd" clip-rule="evenodd" d="M17 1.00001C25.8365 1.00001 33 8.16347 33 17C33 25.8366 25.8365 33 17 33C8.1634 33 0.999974 25.8366 0.999974 17C0.999974 8.16347 8.1634 1.00001 17 1.00001Z" fill="#7AD18A"/>
<path d="M17 2.50001C25.0081 2.50001 31.5 8.99189 31.5 17C31.5 25.0081 25.0081 31.5 17 31.5C8.99183 31.5 2.49997 25.0081 2.49997 17C2.49997 8.9919 8.99183 2.50001 17 2.50001Z" stroke="white" stroke-opacity="0.4" stroke-width="3"/>
<path d="M20.7598 17.2143C20.7598 17.1339 20.7196 17.0435 20.6593 16.9833L15.9785 12.3025C15.9182 12.2422 15.8278 12.202 15.7475 12.202C15.6671 12.202 15.5767 12.2422 15.5165 12.3025L15.0142 12.8047C14.954 12.865 14.9138 12.9554 14.9138 13.0357C14.9138 13.1161 14.954 13.2065 15.0142 13.2667L18.9618 17.2143L15.0142 21.1618C14.954 21.2221 14.9138 21.3125 14.9138 21.3929C14.9138 21.4833 14.954 21.5636 15.0142 21.6239L15.5165 22.1261C15.5767 22.1864 15.6671 22.2266 15.7475 22.2266C15.8278 22.2266 15.9182 22.1864 15.9785 22.1261L20.6593 17.4453C20.7196 17.385 20.7598 17.2946 20.7598 17.2143Z" fill="white"/>
</svg>
