<svg width="24" height="25" viewBox="0 0 24 25" fill="none" xmlns="http://www.w3.org/2000/svg">
<path d="M12.8571 3.85714C12.8571 4.32589 12.4688 4.71428 12 4.71428C11.5313 4.71428 11.1429 4.32589 11.1429 3.85714C11.1429 3.38839 11.5313 3 12 3C12.4688 3 12.8571 3.38839 12.8571 3.85714ZM24 16.2857C24 16.0446 23.8125 15.8571 23.5714 15.8571H18.8571C18.683 15.8571 18.5223 15.9643 18.4554 16.125C18.3884 16.2857 18.4286 16.4598 18.5491 16.5937L19.8884 17.933C18.683 19.5536 16.3661 20.7321 13.7143 21.0938V12.4286H16.2857C16.7545 12.4286 17.1429 12.0402 17.1429 11.5714V9.85714C17.1429 9.38839 16.7545 9 16.2857 9H13.7143V6.81696C14.7321 6.22768 15.4286 5.12946 15.4286 3.85714C15.4286 1.96875 13.8884 0.42857 12 0.42857C10.1116 0.42857 8.57143 1.96875 8.57143 3.85714C8.57143 5.12946 9.26786 6.22768 10.2857 6.81696V9H7.71429C7.24554 9 6.85714 9.38839 6.85714 9.85714V11.5714C6.85714 12.0402 7.24554 12.4286 7.71429 12.4286H10.2857V21.0938C7.63393 20.7321 5.31696 19.5536 4.11161 17.933L5.45089 16.5937C5.57143 16.4598 5.61161 16.2857 5.54464 16.125C5.47768 15.9643 5.31696 15.8571 5.14286 15.8571H0.428571C0.1875 15.8571 0 16.0446 0 16.2857V21C0 21.1741 0.107143 21.3348 0.267857 21.4018C0.321429 21.4152 0.375 21.4286 0.428571 21.4286C0.535714 21.4286 0.65625 21.3884 0.736607 21.308L1.98214 20.0625C4.08482 22.5938 7.86161 24.2143 12 24.2143C16.1384 24.2143 19.9152 22.5938 22.0179 20.0625L23.2634 21.308C23.3571 21.3884 23.4643 21.4286 23.5714 21.4286C23.625 21.4286 23.6786 21.4152 23.7321 21.4018C23.8929 21.3348 24 21.1741 24 21V16.2857Z"/>
</svg>
