<svg width="24" height="21" viewBox="0 0 24 21" fill="none" xmlns="http://www.w3.org/2000/svg">
<path d="M6.9894 10.2545C4.351 9.70536 2.56975 7.88393 2.56975 6.57143V5.28571H5.99833C5.99833 7.38839 6.4269 9.02232 6.9894 10.2545ZM21.4269 6.57143C21.4269 7.88393 19.6456 9.70536 17.0073 10.2545C17.5698 9.02232 17.9983 7.38839 17.9983 5.28571H21.4269V6.57143ZM23.1412 4.85714C23.1412 4.14732 22.5653 3.57143 21.8555 3.57143H17.9983V2.28571C17.9983 1.10714 17.034 0.142856 15.8555 0.142856H8.14118C6.96261 0.142856 5.99833 1.10714 5.99833 2.28571V3.57143H2.14118C1.43136 3.57143 0.855469 4.14732 0.855469 4.85714V6.57143C0.855469 9.11607 3.93583 11.9286 8.1144 12.1295C8.65011 12.8125 9.14565 13.2143 9.38672 13.4018C10.0965 14.0446 10.284 14.7143 10.284 15.5714C10.284 16.4286 9.85547 17.2857 8.56976 17.2857C7.28404 17.2857 5.99833 18.1429 5.99833 19.4286V20.2857C5.99833 20.5268 6.18583 20.7143 6.4269 20.7143H17.5698C17.8108 20.7143 17.9983 20.5268 17.9983 20.2857V19.4286C17.9983 18.1429 16.7126 17.2857 15.4269 17.2857C14.1412 17.2857 13.7126 16.4286 13.7126 15.5714C13.7126 14.7143 13.9001 14.0446 14.6099 13.4018C14.851 13.2143 15.3465 12.8125 15.8823 12.1295C20.0608 11.9286 23.1412 9.11607 23.1412 6.57143V4.85714Z"/>
</svg>
