<svg width="28" height="27" viewBox="0 0 28 27" fill="none" xmlns="http://www.w3.org/2000/svg">
<path d="M7.73675 13.0681C4.43876 12.3817 2.21219 10.1049 2.21219 8.46428V6.85714H6.49791C6.49791 9.48549 7.03362 11.5279 7.73675 13.0681ZM25.7836 8.46428C25.7836 10.1049 23.5571 12.3817 20.2591 13.0681C20.9622 11.5279 21.4979 9.48549 21.4979 6.85714H25.7836V8.46428ZM27.9265 6.32143C27.9265 5.43415 27.2066 4.71428 26.3193 4.71428H21.4979V3.10714C21.4979 1.63393 20.2926 0.42857 18.8193 0.42857H9.17648C7.70326 0.42857 6.49791 1.63393 6.49791 3.10714V4.71428H1.67648C0.789202 4.71428 0.0693359 5.43415 0.0693359 6.32143V8.46428C0.0693359 11.6451 3.91978 15.1607 9.143 15.4118C9.81264 16.2656 10.4321 16.7679 10.7334 17.0022C11.6207 17.8058 11.8551 18.6429 11.8551 19.7143C11.8551 20.7857 11.3193 21.8571 9.71219 21.8571C8.10505 21.8571 6.49791 22.9286 6.49791 24.5357V25.6071C6.49791 25.9085 6.73228 26.1429 7.03362 26.1429H20.9622C21.2635 26.1429 21.4979 25.9085 21.4979 25.6071V24.5357C21.4979 22.9286 19.8908 21.8571 18.2836 21.8571C16.6765 21.8571 16.1408 20.7857 16.1408 19.7143C16.1408 18.6429 16.3751 17.8058 17.2624 17.0022C17.5638 16.7679 18.1832 16.2656 18.8528 15.4118C24.076 15.1607 27.9265 11.6451 27.9265 8.46428V6.32143Z" fill="#FEFEF2"/>
</svg>


