<svg width="32" height="32" viewBox="0 0 32 32" fill="none" xmlns="http://www.w3.org/2000/svg">
<path fill-rule="evenodd" clip-rule="evenodd" d="M16.0001 0C24.8366 0 32 7.16346 32 16C32 24.8366 24.8366 32 16.0001 32C7.16343 32 0 24.8366 0 16C0 7.16346 7.16343 0 16.0001 0Z" fill="white"/>
<path fill-rule="evenodd" clip-rule="evenodd" d="M16.0001 0C24.8366 0 32 7.16346 32 16C32 24.8366 24.8366 32 16.0001 32C7.16343 32 0 24.8366 0 16C0 7.16346 7.16343 0 16.0001 0Z" fill="#7AD18A"/>
<path fill-rule="evenodd" clip-rule="evenodd" d="M29 16C29 8.8203 23.1797 3 16.0001 3C8.82028 3 3 8.82032 3 16C3 23.1797 8.82028 29 16.0001 29C23.1797 29 29 23.1797 29 16ZM32 16C32 7.16346 24.8366 0 16.0001 0C7.16343 0 0 7.16346 0 16C0 24.8366 7.16343 32 16.0001 32C24.8366 32 32 24.8366 32 16Z" fill="white" fill-opacity="0.4"/>
<path d="M19.7598 16.2143C19.7598 16.1339 19.7196 16.0435 19.6594 15.9833L14.9786 11.3025C14.9183 11.2422 14.8279 11.202 14.7475 11.202C14.6672 11.202 14.5768 11.2422 14.5165 11.3025L14.0143 11.8047C13.954 11.865 13.9138 11.9554 13.9138 12.0357C13.9138 12.1161 13.954 12.2065 14.0143 12.2668L17.9618 16.2143L14.0143 20.1618C13.954 20.2221 13.9138 20.3125 13.9138 20.3929C13.9138 20.4833 13.954 20.5636 14.0143 20.6239L14.5165 21.1261C14.5768 21.1864 14.6672 21.2266 14.7475 21.2266C14.8279 21.2266 14.9183 21.1864 14.9786 21.1261L19.6594 16.4453C19.7196 16.3851 19.7598 16.2947 19.7598 16.2143Z" fill="white"/>
</svg>
